<?xml version="1.0" standalone="yes"?>
<svg xmlns="http://www.w3.org/2000/svg" width="512" height="512">
<path style="fill:#010101; stroke:none;" d="M0 0L0 82L1 82C2.67041 43.1953 43.1954 2.67062 82 1L57 0L0 0z"/>
<path style="fill:#ffffff; stroke:none;" d="M193 439C166.412 439.22 135.892 445.913 115.616 422.91C105.389 411.308 102.142 395.259 92.4823 383C85.2112 373.773 73.9595 369.31 68 359C98.8861 347.106 112.958 382.263 131.001 398.907C140.398 407.576 150.632 410 163 410C170.96 410 187.412 410.234 193.012 403.301C196.344 399.174 196.294 390.965 198.515 386C201.477 379.375 207.011 374.449 210 368C178.95 367.743 142.11 354.41 121.174 331C97.3838 304.399 89.3113 261.549 94.4275 227C96.1907 215.093 99.9762 203.335 106.204 193C109.645 187.29 115.212 181.955 117.961 176C120.589 170.309 115.529 160.013 114.59 154C112.898 143.163 114.385 131.512 117.295 121C119.066 114.601 119.946 106.277 128.001 106.023C143.82 105.525 162.516 115.902 176 123.312C180.889 125.998 185.582 130.559 191 132.092C196.616 133.68 204.421 129.898 210 128.804C223.121 126.231 236.659 124.624 250 124.039C265.937 123.341 282.311 125.432 298 128.081C304.556 129.188 313.44 133.423 320 132.327C325.953 131.333 331.803 125.761 337 122.862C347.163 117.191 357.942 112.31 369 108.671C374.035 107.013 384.715 103.264 389.298 107.603C392.234 110.384 393.079 116.257 394.14 120C397.717 132.62 398.886 145.026 396.715 158C395.878 163 392.071 170.012 393.643 175C395.69 181.496 402.85 188.005 406.395 194C412.484 204.297 416.04 216.19 417.715 228C422.66 262.881 414.213 305.557 389.829 331.985C368.804 354.774 332.558 367.369 302 368C306.095 376.833 313.005 383.278 315.961 393C322.123 413.27 319 437.046 319 458C319 470.561 313.952 497.591 322.652 507.657C326.436 512.034 332.705 511.991 338 512L373 512C415.776 512 457.718 515.622 488.711 480C494.809 472.99 499.707 465.355 503.742 457C518.262 426.93 512 387.496 512 355L512 141C512 102.725 516.48 64.2444 489.7 33C461.305 -0.127686 424.974 0 385 0L141 0C97.2477 0 55.2282 -3.90039 23.1736 32C-3.77607 62.183 0 99.4849 0 137L0 350C0 382.903 -6.37533 423.152 6.87268 454C10.4129 462.243 15.0873 469.983 20.6659 477C51.0387 515.204 94.2083 512 138 512L172 512C177.819 512 184.027 512.612 188.61 508.291C194.16 503.056 193 494.898 193 488L193 439z"/>
<path style="fill:#010101; stroke:none;" d="M430 0L430 1C468.805 2.67062 509.329 43.1953 511 82L512 82L512 0L430 0M210 368C205.404 374.603 200.116 380.259 197.348 388C195.731 392.523 195.621 400.858 191.686 403.925C175.443 416.587 144.636 410.99 131.001 397.96C122.054 389.41 117.214 377.565 107.961 369.44C97.5795 360.324 81.3921 351.98 68 359C72.2862 370.064 85.2823 374.862 92.4823 384C101.875 395.921 105.037 411.552 114.808 422.91C134.759 446.103 166.502 439.547 193 439L193 489C193 498.365 192.777 506.823 183 511L183 512L330 512L330 511C314.742 507.362 319 484.789 319 473C319 447.137 323.748 415.846 315.642 391C312.705 381.997 307.291 375.602 302 368C332.302 367.749 368.773 355.33 389.829 332.961C414.88 306.348 422.71 262.237 417.715 227C416.04 215.19 412.484 203.297 406.395 193C403.008 187.272 395.323 180.3 393.787 174C392.705 169.562 395.972 163.434 396.715 159C398.918 145.837 398.042 132.837 394.421 120C393.383 116.323 392.543 109.462 389.298 107.028C384.576 103.487 373.939 106.762 369 108.344C357.584 112.001 346.463 117.024 336 122.862C330.922 125.695 324.92 131.46 319 132.037C311.739 132.744 302.264 128.632 295 127.414C279.998 124.898 264.221 123.373 249 124.039C236.313 124.595 223.508 126.164 211 128.424C205.344 129.446 197.694 133.096 192 131.882C186.585 130.727 181.779 125.938 177 123.312C162.665 115.435 143.795 105.308 127.005 106.019C119.376 106.343 118.642 114.902 117.014 121C114.129 131.808 112.857 143.903 114.59 155C115.488 160.748 120.324 170.695 117.371 176C108.95 191.129 99.061 202.334 95.4498 220C87.9985 256.453 95.7783 303.694 121.174 331.999C141.983 355.193 179.325 367.915 210 368z"/>
<path style="fill:#ffffff; stroke:none;" d="M90 363C91.7032 373.68 102.981 363.713 90 363M102.329 372.256C98.0669 374.178 102.797 380.886 106.671 379.338C110.874 377.659 105.99 370.606 102.329 372.256M113.144 385.06C107.715 385.926 111.197 394.859 115.892 394.454C121.352 393.982 118.055 384.277 113.144 385.06M124.319 400.072C119.014 403.204 125.728 411.747 130.562 408.777C135.701 405.621 129.086 397.257 124.319 400.072M141.319 411.042C135.16 414.926 144.933 421.525 149.253 417.971C154.119 413.97 145.359 408.493 141.319 411.042M183.148 411.747C176.856 414.461 181.858 421.828 187.852 418.99C193.873 416.139 188.424 409.471 183.148 411.747M162.319 415.028C156.164 419.139 165.218 424.009 169.677 420.972C175.345 417.112 166.542 412.207 162.319 415.028z"/>
<path style="fill:#010101; stroke:none;" d="M0 430L0 512L82 512L82 511C52.0624 509.711 23.4621 485.594 10.2585 460C5.2572 450.305 4.3038 439.587 0 430M511 430C509.33 468.783 468.792 509.309 430 511L430 512L512 512L512 455L511 430z"/>
</svg>
