<?xml version="1.0" standalone="yes"?>
<svg xmlns="http://www.w3.org/2000/svg" width="512" height="512">
<path style="fill:#010101; stroke:none;" d="M0 0L0 58L1 58C3.24251 30.5444 30.5444 3.24249 58 1L39 0L0 0z"/>
<path style="fill:#ffffff; stroke:none;" d="M58 0.439056C28.4221 5.05856 2.23334 30.412 0.0895062 61C-2.2455 94.3156 0 128.595 0 162L0 362L0 425C0 445.825 -0.555197 465.132 12.0432 483C38.3121 520.256 85.3512 512 125 512L347 512L418 512C430.347 512 443.847 513.521 456 511.195C484.724 505.699 509.812 480.943 511.91 451C514.269 417.355 512 382.736 512 349L512 147L512 86C512 64.6563 512.302 44.8038 498.486 27C470.675 -8.83911 423.015 0 383 0L165 0L95 0C82.9627 0 69.9028 -1.41992 58 0.439056z"/>
<path style="fill:#010101; stroke:none;" d="M454 0L454 1C481.456 3.24249 508.758 30.5444 511 58L512 58L512 0L454 0M140 96.5941C84.6856 98.6784 85.6338 184.014 141 182.946C196.89 181.868 196.114 94.4796 140 96.5941M272 229C272 222.257 274.514 209.473 268.772 204.653C264.516 201.081 258.149 202 253 202C241.669 202 230.33 201.864 219 202.004C214.076 202.065 208.805 202.827 206.742 208.019C201.958 220.061 206 241.045 206 254L206 361L206 396C206 400.486 204.899 406.834 207.179 410.891C209.824 415.598 216.222 415.939 221 415.996C232.874 416.138 258.049 420.63 267.891 413.297C276.056 407.214 272 385.193 272 376C272 347.771 266.622 313.153 275.025 286C280.33 268.858 292.991 255.292 312 256.04C334.257 256.916 343.935 276.168 345.83 296C348.332 322.178 346 349.694 346 376C346 385.622 343.338 399.968 346.894 408.985C349.335 415.174 355.365 414.998 361 415L397 415C401.969 415 408.638 416.118 412.106 411.656C415.639 407.111 414 398.413 414 393L414 345C414 308.073 419.163 265.635 400.688 232C381.089 196.317 327.702 189.693 294 208.312C284.67 213.467 278.848 221.137 272 229M115.004 202.653C107.327 205.094 107.011 213.213 107 220L107 271L107 372C107 382.386 103.229 402.186 109.703 410.891C113.028 415.362 118.847 415.935 124 415.996C136.78 416.149 153.721 418.793 165.996 415.057C174.462 412.481 174 404.292 174 397L174 347L174 244C174 234.327 177.819 213.997 171.486 206.133C167.879 201.654 162.19 202.002 157 202C144.459 201.995 126.971 198.848 115.004 202.653M0 454L0 512L58 512L58 511C37.5033 509.326 17.9153 493.586 8.3125 476C4.46782 468.959 3.38527 461.031 0 454M511 454C508.759 481.434 481.454 508.758 454 511L454 512L512 512L512 473L511 454z"/>
</svg>
