<svg xmlns="http://www.w3.org/2000/svg" x="0px" y="0px"
width="96" height="96"
viewBox="0 0 172 172"
style=" fill:#000000;"><g fill="none" fill-rule="nonzero" stroke="none" stroke-width="1" stroke-linecap="butt" stroke-linejoin="miter" stroke-miterlimit="10" stroke-dasharray="" stroke-dashoffset="0" font-family="none" font-weight="none" font-size="none" text-anchor="none" style="mix-blend-mode: normal"><path d="M0,172v-172h172v172z" fill="none"></path><g fill="#0e76a8"><path d="M141.04,13.76h-110.08c-9.4944,0 -17.2,7.7056 -17.2,17.2v110.08c0,9.4944 7.7056,17.2 17.2,17.2h110.08c9.4944,0 17.2,-7.7056 17.2,-17.2v-110.08c0,-9.4944 -7.7056,-17.2 -17.2,-17.2zM58.48,68.8v65.36h-20.64v-65.36zM37.84,49.7768c0,-4.816 4.128,-8.4968 10.32,-8.4968c6.192,0 10.0792,3.6808 10.32,8.4968c0,4.816 -3.8528,8.7032 -10.32,8.7032c-6.192,0 -10.32,-3.8872 -10.32,-8.7032zM134.16,134.16h-20.64c0,0 0,-31.8544 0,-34.4c0,-6.88 -3.44,-13.76 -12.04,-13.8976h-0.2752c-8.3248,0 -11.7648,7.0864 -11.7648,13.8976c0,3.1304 0,34.4 0,34.4h-20.64v-65.36h20.64v8.8064c0,0 6.6392,-8.8064 19.9864,-8.8064c13.6568,0 24.7336,9.3912 24.7336,28.4144z"></path></g></g></svg>