<svg xmlns="http://www.w3.org/2000/svg" x="0px" y="0px"
width="100" height="100"
viewBox="0 0 172 172"
style=" fill:#000000;"><g fill="none" fill-rule="nonzero" stroke="none" stroke-width="1" stroke-linecap="butt" stroke-linejoin="miter" stroke-miterlimit="10" stroke-dasharray="" stroke-dashoffset="0" font-family="none" font-weight="none" font-size="none" text-anchor="none" style="mix-blend-mode: normal"><path d="M0,172v-172h172v172z" fill="none"></path><g fill="#a3a3cd"><path d="M30.96,158.24c-1.54531,0 -2.9025,-1.03469 -3.31906,-2.52625c-0.41656,-1.47812 0.22844,-3.06375 1.54531,-3.85656c7.36375,-4.42094 10.30656,-11.18 9.1375,-21.13719h-14.24375c-9.48687,0 -17.2,-7.71312 -17.2,-17.2v-82.56c0,-9.48687 7.71313,-17.2 17.2,-17.2h123.84c9.48688,0 17.2,7.71313 17.2,17.2v82.56c0,9.48688 -7.71312,17.2 -17.2,17.2h-76.76844c-10.23938,24.77875 -31.39,27.52 -40.19156,27.52z"></path></g></g></svg>