<svg xmlns="http://www.w3.org/2000/svg" x="0px" y="0px"
width="48" height="48"
viewBox="0 0 172 172"><g fill-rule="nonzero" stroke="none" stroke-width="1" stroke-linecap="butt" stroke-linejoin="miter" stroke-miterlimit="10" stroke-dasharray="" stroke-dashoffset="0" font-family="none" font-weight="none" font-size="none" text-anchor="none" style="mix-blend-mode: normal"><path d="M0,172v-172h172v172z" fill="none"></path><g fill="#333"><path d="M82.56,6.88c-41.75031,0 -75.68,33.92969 -75.68,75.68c0,41.75031 33.92969,75.68 75.68,75.68c7.08156,0 14.00188,-1.02125 20.64,-2.9025v-13.27625c-5.14656,4.97188 -10.97844,8.15656 -17.2,9.03v-27.25125h17.2v-6.88h-17.2v-30.96h17.2v-6.88h-17.2v-30.96h32.23656c3.07719,8.88219 5.02562,18.98719 5.45562,29.79094l3.58781,3.37281l3.39969,3.17125l1.59906,1.505h18.96031c-0.26875,5.25406 -1.10188,10.41406 -2.52625,15.41281l5.56312,5.21375c2.59344,-7.69969 3.96406,-15.78906 3.96406,-24.06656c0,-41.75031 -33.92969,-75.68 -75.68,-75.68zM79.12,14.04219v27.23781h-29.44156c1.29,-2.83531 2.66063,-5.53625 4.17906,-7.98187c6.86656,-11.08594 15.72188,-17.91219 25.2625,-19.25594zM86,14.04219c12.05344,1.66625 22.62875,11.98625 29.50875,27.23781h-29.50875zM108.36,18.75875c11.69063,4.73 21.74188,12.59094 29.19969,22.52125h-14.68719c-3.7625,-9.04344 -8.72094,-16.71625 -14.5125,-22.52125zM56.50469,18.89313c-3.10406,3.13094 -5.97969,6.71875 -8.4925,10.77687c-2.20375,3.56094 -4.16562,7.45781 -5.87219,11.61h-14.55281c7.40406,-9.84969 17.34781,-17.65687 28.9175,-22.38687zM23.01844,48.16h16.60875c-3.02344,9.37938 -4.81062,19.86063 -5.11969,30.96h-20.66687c0.56437,-11.26062 3.85656,-21.76875 9.17781,-30.96zM46.91031,48.16h32.20969v30.96h-37.7325c0.33594,-11.26062 2.29781,-21.79562 5.52281,-30.96zM125.39875,48.16h16.75656c5.30781,9.19125 8.55969,19.71281 9.11062,30.96h-20.65344c-0.3225,-11.11281 -2.15,-21.59406 -5.21375,-30.96zM13.84063,86h20.66687c0.30906,11.09938 2.09625,21.58063 5.11969,30.96h-16.60875c-5.32125,-9.19125 -8.61344,-19.69937 -9.17781,-30.96zM41.3875,86h37.7325v30.96h-32.20969c-3.225,-9.16437 -5.18688,-19.69937 -5.52281,-30.96zM116.79875,86c-1.8275,0.09406 -3.27875,1.59906 -3.27875,3.44v66.22c0,1.3975 0.83313,2.64719 2.12313,3.17125c1.29,0.5375 2.76812,0.24188 3.74906,-0.73906l10.36031,-10.37375l8.64031,18.83938c0.79281,1.72 2.83531,2.4725 4.56875,1.67969l13.27625,-6.07375c1.72,-0.79281 2.4725,-2.83531 1.67969,-4.56875l-8.96281,-19.565h16.16531c1.41094,0 2.6875,-0.86 3.19813,-2.17687c0.52406,-1.31688 0.18812,-2.80844 -0.84656,-3.77594l-48.16,-45.15c-0.68531,-0.63156 -1.58563,-0.9675 -2.51281,-0.92719zM120.4,97.38156l36.0125,33.76844h-12.3625c-0.5375,0 -1.06156,0.12094 -1.54531,0.36281l-0.36281,0.18812c-1.65281,0.83313 -2.365,2.82188 -1.58563,4.50156l9.675,21.12375l-7.02781,3.225l-9.25844,-20.19656c-0.45687,-1.02125 -1.41094,-1.74687 -2.51281,-1.94844c-1.11531,-0.20156 -2.24406,0.16125 -3.03687,0.9675l-7.99531,7.98188zM27.58719,123.84h14.55281c1.70656,4.15219 3.66844,8.04906 5.87219,11.61c2.51281,4.05813 5.38844,7.64594 8.4925,10.77688c-11.56969,-4.73 -21.51344,-12.53719 -28.9175,-22.38688zM49.67844,123.84h29.44156v27.23781c-9.54062,-1.34375 -18.39594,-8.17 -25.2625,-19.2425c-1.51844,-2.45906 -2.88906,-5.16 -4.17906,-7.99531z"></path></g></g></svg>